<mxfile host="app.diagrams.net" modified="2023-12-11T08:13:57.786Z" agent="Mozilla/5.0 (Windows NT 10.0; Win64; x64) AppleWebKit/537.36 (KHTML, like Gecko) Chrome/120.0.0.0 Safari/537.36 Edg/120.0.0.0" etag="S_Cg5EVTsapmflt_QZo-" version="22.1.7" type="github">
  <diagram name="Page-1" id="OFI5wmGDevCytd_kmbKt">
    <mxGraphModel dx="1078" dy="649" grid="1" gridSize="10" guides="1" tooltips="1" connect="1" arrows="1" fold="1" page="1" pageScale="1" pageWidth="827" pageHeight="1169" math="0" shadow="0">
      <root>
        <mxCell id="0" />
        <mxCell id="1" parent="0" />
        <mxCell id="1ICvWJH47NBeMJeM7ncQ-4" value="" style="edgeStyle=orthogonalEdgeStyle;rounded=0;orthogonalLoop=1;jettySize=auto;html=1;shape=flexArrow;fillColor=#CC6600;" edge="1" parent="1" source="1ICvWJH47NBeMJeM7ncQ-2" target="1ICvWJH47NBeMJeM7ncQ-3">
          <mxGeometry relative="1" as="geometry" />
        </mxCell>
        <mxCell id="1ICvWJH47NBeMJeM7ncQ-2" value="数据收集和标注" style="ellipse;whiteSpace=wrap;html=1;fillColor=#FF8000;" vertex="1" parent="1">
          <mxGeometry x="50" y="160" width="120" height="80" as="geometry" />
        </mxCell>
        <mxCell id="1ICvWJH47NBeMJeM7ncQ-6" value="" style="edgeStyle=orthogonalEdgeStyle;rounded=0;orthogonalLoop=1;jettySize=auto;html=1;fillColor=#CC6600;shape=flexArrow;" edge="1" parent="1" source="1ICvWJH47NBeMJeM7ncQ-3" target="1ICvWJH47NBeMJeM7ncQ-5">
          <mxGeometry relative="1" as="geometry" />
        </mxCell>
        <mxCell id="1ICvWJH47NBeMJeM7ncQ-3" value="大语言模型训练" style="rhombus;whiteSpace=wrap;html=1;fillColor=#00CC00;" vertex="1" parent="1">
          <mxGeometry x="180" y="290" width="150" height="80" as="geometry" />
        </mxCell>
        <mxCell id="1ICvWJH47NBeMJeM7ncQ-8" value="" style="edgeStyle=orthogonalEdgeStyle;rounded=0;orthogonalLoop=1;jettySize=auto;html=1;shape=flexArrow;fillColor=#CC6600;" edge="1" parent="1" source="1ICvWJH47NBeMJeM7ncQ-5" target="1ICvWJH47NBeMJeM7ncQ-7">
          <mxGeometry relative="1" as="geometry" />
        </mxCell>
        <mxCell id="1ICvWJH47NBeMJeM7ncQ-5" value="用户评判标准转化" style="shape=hexagon;perimeter=hexagonPerimeter2;whiteSpace=wrap;html=1;fixedSize=1;fillColor=#00CC00;" vertex="1" parent="1">
          <mxGeometry x="425" y="290" width="120" height="80" as="geometry" />
        </mxCell>
        <mxCell id="1ICvWJH47NBeMJeM7ncQ-10" value="" style="edgeStyle=orthogonalEdgeStyle;rounded=0;orthogonalLoop=1;jettySize=auto;html=1;shape=flexArrow;fillColor=#CC6600;" edge="1" parent="1" source="1ICvWJH47NBeMJeM7ncQ-7" target="1ICvWJH47NBeMJeM7ncQ-9">
          <mxGeometry relative="1" as="geometry" />
        </mxCell>
        <mxCell id="1ICvWJH47NBeMJeM7ncQ-7" value="生成深度学习框架" style="rhombus;whiteSpace=wrap;html=1;fillColor=#00CC00;" vertex="1" parent="1">
          <mxGeometry x="397.5" y="480" width="175" height="80" as="geometry" />
        </mxCell>
        <mxCell id="1ICvWJH47NBeMJeM7ncQ-12" value="" style="edgeStyle=orthogonalEdgeStyle;rounded=0;orthogonalLoop=1;jettySize=auto;html=1;shape=flexArrow;fillColor=#CC6600;" edge="1" parent="1" source="1ICvWJH47NBeMJeM7ncQ-9" target="1ICvWJH47NBeMJeM7ncQ-11">
          <mxGeometry relative="1" as="geometry" />
        </mxCell>
        <mxCell id="1ICvWJH47NBeMJeM7ncQ-9" value="深度学习框架训练和评估" style="shape=parallelogram;perimeter=parallelogramPerimeter;whiteSpace=wrap;html=1;fixedSize=1;fillColor=#00CC00;size=10;" vertex="1" parent="1">
          <mxGeometry x="110" y="490" width="180" height="60" as="geometry" />
        </mxCell>
        <mxCell id="1ICvWJH47NBeMJeM7ncQ-11" value="最优模型选择和部署" style="ellipse;whiteSpace=wrap;html=1;fillColor=#FF8000;" vertex="1" parent="1">
          <mxGeometry x="220" y="640" width="120" height="80" as="geometry" />
        </mxCell>
        <mxCell id="1ICvWJH47NBeMJeM7ncQ-15" value="" style="endArrow=classic;html=1;rounded=0;exitX=0;exitY=0.5;exitDx=0;exitDy=0;entryX=0;entryY=0.5;entryDx=0;entryDy=0;shape=flexArrow;fillColor=#CC6600;" edge="1" parent="1" source="1ICvWJH47NBeMJeM7ncQ-9" target="1ICvWJH47NBeMJeM7ncQ-3">
          <mxGeometry width="50" height="50" relative="1" as="geometry">
            <mxPoint x="560" y="520" as="sourcePoint" />
            <mxPoint x="610" y="470" as="targetPoint" />
            <Array as="points">
              <mxPoint x="60" y="330" />
            </Array>
          </mxGeometry>
        </mxCell>
        <mxCell id="1ICvWJH47NBeMJeM7ncQ-16" value="通过用户交互软件实现" style="ellipse;shape=cloud;whiteSpace=wrap;html=1;fillColor=#007FFF;" vertex="1" parent="1">
          <mxGeometry x="510" y="220" width="190" height="80" as="geometry" />
        </mxCell>
        <mxCell id="1ICvWJH47NBeMJeM7ncQ-17" value="Q*、DQN、PPO" style="ellipse;shape=cloud;whiteSpace=wrap;html=1;fillColor=#007FFF;" vertex="1" parent="1">
          <mxGeometry x="527.5" y="430" width="155" height="80" as="geometry" />
        </mxCell>
        <mxCell id="1ICvWJH47NBeMJeM7ncQ-18" value="Tranformer架构" style="ellipse;shape=cloud;whiteSpace=wrap;html=1;fillColor=#3399FF;" vertex="1" parent="1">
          <mxGeometry x="167.5" y="370" width="175" height="80" as="geometry" />
        </mxCell>
      </root>
    </mxGraphModel>
  </diagram>
</mxfile>
